<svg width="24" height="24" viewBox="0 0 24 24" fill="none" xmlns="http://www.w3.org/2000/svg">
<path d="M21.5306 7.28062L9.53061 19.2806C9.46096 19.3504 9.37824 19.4057 9.2872 19.4434C9.19615 19.4812 9.09855 19.5006 8.99999 19.5006C8.90143 19.5006 8.80383 19.4812 8.71278 19.4434C8.62174 19.4057 8.53902 19.3504 8.46936 19.2806L3.21936 14.0306C3.07863 13.8899 2.99957 13.699 2.99957 13.5C2.99957 13.301 3.07863 13.1101 3.21936 12.9694C3.3601 12.8286 3.55097 12.7496 3.74999 12.7496C3.94901 12.7496 4.13988 12.8286 4.28061 12.9694L8.99999 17.6897L20.4694 6.21937C20.6101 6.07864 20.801 5.99958 21 5.99958C21.199 5.99958 21.3899 6.07864 21.5306 6.21937C21.6713 6.3601 21.7504 6.55097 21.7504 6.75C21.7504 6.94902 21.6713 7.13989 21.5306 7.28062Z" fill="#1A212B"/>
</svg>
